<svg xmlns="http://www.w3.org/2000/svg" fill="#6ca329" viewBox="0 0 64 64" xmlns:v="https://vecta.io/nano"><path d="M59.17 40.24c-1.027-.09-2.045-.467-2.45-1.53-.45-.996.014-1.992.66-2.77a1 1 0 0 0-.1-1.29l-3.93-3.93a1 1 0 0 0-1.29-.1l-.58.41c-1.268.98-3.392.136-3.6-1.49l-.12-.71a.99.99 0 0 0-.98-.83h-5.561a.99.99 0 0 0-.98.83l-.12.71c-.203 1.596-2.305 2.49-3.6 1.49l-.58-.41a1 1 0 0 0-1.29.1l-3.931 3.93a1 1 0 0 0-.1 1.29l.41.58c.98 1.268.136 3.391-1.49 3.6l-.71.12a.99.99 0 0 0-.83.98v5.56a.99.99 0 0 0 .83.98l.71.12c.78.13 1.42.64 1.74 1.41a2.26 2.26 0 0 1-.25 2.19c-.426.553-.93 1.224-.31 1.87l3.93 3.93a1 1 0 0 0 1.29.1c.79-.659 1.774-1.107 2.81-.64 1.027.38 1.399 1.421 1.49 2.43a.99.99 0 0 0 .98.83h5.561a.99.99 0 0 0 .98-.83l.12-.71c.203-1.596 2.305-2.49 3.6-1.49.553.426 1.224.93 1.87.31l3.93-3.93a1 1 0 0 0 .1-1.29c-.658-.79-1.106-1.774-.64-2.81.381-1.027 1.422-1.398 2.43-1.49a.99.99 0 0 0 .831-.98v-5.56a.99.99 0 0 0-.83-.98zM43.999 53.5c-5.086.102-9.607-4.403-9.5-9.5-.045-8.37 10.296-12.672 16.21-6.73 5.97 5.923 1.673 16.27-6.71 16.23zm0-17c-5.52-.131-9.316 6.19-6.63 11 3.678 6.856 14.077 4.288 14.13-3.5.097-3.995-3.484-7.6-7.5-7.5zm-.53 6.5h1.06c3.168.055 3.542 4.56.47 5.16.167 1.592-2.122 1.642-2 .04h-1.14c-.55 0-1-.44-1-1 0-.55.45-1 1-1h2.67c.34 0 .61-.27.61-.6-.023-.844-1.135-.552-1.67-.6-3.168-.055-3.542-4.56-.47-5.16-.167-1.593 2.122-1.642 2-.04h1.14c1.313.02 1.316 1.974 0 2h-2.67c-.799.004-.799 1.196 0 1.2zM29.298 54.75c-1.285-1.32-1.042-3.131.1-4.42.08-.11.06-.21.03-.28-.07-.17-.17-.19-.22-.2-1.74-.112-3.206-1.229-3.21-3.07v-5.56c0-1.47 1.05-2.71 2.5-2.95.178-.06.858-.05.91-.28.08-.19.02-.27 0-.3l-.42-.6c-.85-1.16-.73-2.78.3-3.83l3.95-3.95c1.284-1.294 3.15-1.054 4.43.09.174.151.495-.055.48-.19.108-1.735 1.233-3.208 3.07-3.21h3.03c-1.93-2.76-4.48-5.08-7.47-6.69a5.006 5.006 0 0 1-4.43 2.69h-10.91c-1.85 0-3.59-1.03-4.43-2.72C7.165 24.55 2.655 37.3 7.125 47.57c-5.67 3.53-3.12 12.45 3.58 12.43h23.832l-5.24-5.25zM16.31 13.06c.79 1.14 1.71 1.97 2.49 2.54-1.104 1.896.449 4.458 2.63 4.4h10.92c2.177.06 3.735-2.501 2.63-4.4 1.981-1.353 3.804-4.099 4.24-6.68.553-2.463-1.521-4.983-4.04-4.919H18.6c-2.519-.062-4.596 2.455-4.04 4.92.31 1.52.89 2.91 1.75 4.14z"/></svg>