<svg xmlns="http://www.w3.org/2000/svg" fill="#ed4b71" viewBox="0 0 24 24" xmlns:v="https://vecta.io/nano"><path fill-rule="evenodd" d="M9 1.25a4.75 4.75 0 1 0 0 9.5 4.75 4.75 0 0 0 0-9.5zM5.75 6a3.25 3.25 0 1 1 6.5 0 3.25 3.25 0 0 1-6.5 0z"/><path d="M17.652 8.591a.75.75 0 0 0-1.061 1.06l1.591 1.592-1.591 1.59a.75.75 0 0 0 1.06 1.061l1.592-1.59 1.59 1.59a.75.75 0 1 0 1.061-1.06l-1.59-1.591 1.59-1.591a.75.75 0 0 0-1.06-1.061l-1.591 1.591z"/><path fill-rule="evenodd" d="M6 12.25a4.75 4.75 0 1 0 0 9.5h6a4.75 4.75 0 1 0 0-9.5zM2.75 17A3.25 3.25 0 0 1 6 13.75h6a3.25 3.25 0 0 1 0 6.5H6A3.25 3.25 0 0 1 2.75 17z"/></svg>