<svg xmlns="http://www.w3.org/2000/svg" fill="#8743df" viewBox="0 0 512 512" xmlns:v="https://vecta.io/nano"><path d="M391 136C391 61.559 330.441 0 256 0S121 61.559 121 136s60.559 135 135 135 135-60.559 135-135zm-150 90v-13.32c-17.504-6.164-30.16-22.696-30.16-42.285 0-8.29 6.707-15 15-15s15 6.71 15 15c0 8.277 6.722 15 15 15s15-6.723 15-15-6.727-15-15-15c-24.817 0-45-20.188-45-45 0-19.59 12.656-36.118 30.16-42.286V46c0-8.285 6.715-15 15-15s15 6.715 15 15v22.207c17.34 6.258 29.84 22.719 29.84 42.188 0 8.293-6.711 15-15 15a14.99 14.99 0 0 1-15-15c0-8.278-6.727-15-15-15s-15 6.722-15 15 6.722 15 15 15c24.812 0 45 20.187 45 45 0 19.468-12.5 35.93-29.84 42.187V226c0 8.293-6.71 15-15 15s-15-6.71-15-15zM15 481l88.598-.3 174.023 31.085c3.875.645 7.649-.176 10.867-2.43L505.7 355.898c6.906-4.933 8.18-14.128 3.598-21-14.598-20.312-42.98-24.886-62.7-10.8L307.001 421H196c-8.402 0-15-6.602-15-15s6.598-15 15-15h90c16.5 0 30-13.5 30-30s-13.5-30-30-30h-18.602c-3.597 0-7.199-1.203-9.898-3.602-3.68-2.777-17.953-18.289-41.703-26.398-68.121-24.082-111.379 27.84-115.496 30H15c-8.285 0-15 6.715-15 15v120.05c0 8.274 6.723 14.977 15 14.95zm0 0"/></svg>