<svg version="1.0" xmlns="http://www.w3.org/2000/svg" viewBox="0 0 512 512" preserveAspectRatio="xMidYMid meet">

<g transform="translate(0.000000,512.000000) scale(0.100000,-0.100000)"
fill="#ffc720" stroke="none">
<path d="M944 4450 c-188 -28 -368 -151 -453 -310 -64 -120 -61 -56 -61 -1371
0 -1038 2 -1203 15 -1254 49 -185 205 -340 410 -406 65 -21 92 -23 365 -26
292 -4 295 -4 340 19 66 34 93 79 88 148 -4 62 -25 97 -73 127 -27 16 -62 19
-325 23 -272 5 -299 7 -341 26 -62 29 -114 76 -138 128 -21 42 -21 53 -21 938
l0 896 88 -32 87 -31 1495 -5 1495 -5 50 -27 c102 -54 144 -128 145 -250 l0
-78 -137 0 c-250 -1 -338 -26 -444 -126 -70 -68 -114 -150 -129 -244 -12 -80
-13 -353 0 -438 18 -126 97 -246 201 -309 86 -51 150 -63 341 -63 l168 0 0
-82 c-1 -140 -38 -206 -147 -260 l-68 -33 -272 -5 c-308 -6 -307 -5 -351 -91
-38 -72 -13 -158 58 -202 34 -21 45 -22 310 -22 312 0 345 5 484 78 144 74
254 215 291 368 8 36 15 111 15 174 l0 110 29 13 c88 39 180 149 212 252 19
62 20 89 17 311 l-3 244 -32 67 c-37 79 -101 151 -171 193 l-50 30 -5 130 c-5
138 -22 205 -72 291 -63 108 -189 210 -312 254 l-63 23 0 166 c0 211 -10 276
-60 376 -72 148 -221 259 -380 285 -76 12 -2515 12 -2596 0z m2571 -321 c52
-15 119 -82 134 -134 6 -22 11 -111 11 -198 l0 -157 -1324 0 c-1446 1 -1391
-2 -1479 58 -23 15 -55 47 -72 70 -27 40 -30 51 -30 122 0 71 3 82 30 121 17
24 48 56 70 71 85 59 39 57 1385 57 876 1 1247 -2 1275 -10z m754 -1498 c41
-6 60 -15 78 -35 22 -26 23 -32 23 -221 0 -118 -4 -203 -11 -218 -24 -53 -46
-57 -316 -57 -347 0 -337 -8 -331 296 l3 173 29 30 c16 16 40 32 55 34 48 7
415 6 470 -2z"/>
<path d="M2370 1798 c-75 -51 -75 -51 -78 -335 l-3 -256 -97 95 c-83 82 -103
97 -140 103 -54 9 -127 -25 -159 -74 -27 -40 -30 -107 -8 -155 8 -17 122 -138
253 -268 331 -330 294 -329 611 -15 123 122 236 242 252 266 62 96 20 209 -90
242 -66 20 -112 -1 -212 -98 l-88 -85 -3 250 c-3 236 -4 252 -24 279 -35 48
-82 73 -134 73 -32 0 -57 -7 -80 -22z"/>
</g>
</svg>
