<svg version="1.0" xmlns="http://www.w3.org/2000/svg"
  width="18px" height="18px" viewBox="0 0 512 512"
 preserveAspectRatio="xMidYMid meet">

<g transform="translate(0.000000,512.000000) scale(0.100000,-0.100000)"
fill="#111827" stroke="none">
<path d="M2800 5007 c-42 -13 -1843 -900 -1864 -919 -6 -4 49 -8 121 -8 l131
0 1014 276 c557 152 1017 280 1022 284 4 4 -19 64 -53 133 -66 134 -107 183
-185 217 -57 26 -132 32 -186 17z"/>
<path d="M2855 4356 c-528 -144 -967 -265 -975 -269 -8 -3 519 -6 1172 -6
l1186 -1 -29 108 c-16 59 -39 142 -50 184 -44 163 -146 249 -294 247 -33 0
-373 -88 -1010 -263z"/>
<path d="M196 3864 c-35 -11 -65 -32 -107 -73 -98 -98 -90 70 -87 -1821 l3
-1655 23 -45 c33 -63 86 -115 146 -142 l51 -23 2190 0 c2057 0 2192 1 2228 17
67 30 114 76 146 140 l31 61 0 433 0 433 -897 3 -898 3 -59 23 c-167 63 -278
184 -320 348 -13 51 -16 126 -16 420 0 198 5 386 10 419 22 135 125 277 248
343 118 63 99 62 1060 62 l873 0 -3 438 -3 437 -27 45 c-33 56 -70 92 -128
122 l-45 23 -2185 2 c-1924 1 -2191 0 -2234 -13z"/>
<path d="M3045 2596 c-84 -24 -144 -74 -187 -156 -23 -45 -23 -46 -23 -435 0
-389 0 -390 24 -442 27 -61 84 -116 150 -147 46 -21 47 -21 966 -21 919 0 920
0 966 21 63 29 120 83 149 141 l25 48 3 373 c4 448 3 453 -86 541 -98 97 -28
91 -1056 90 -641 -1 -902 -4 -931 -13z m606 -439 c50 -33 69 -79 69 -165 0
-134 -45 -184 -169 -191 -90 -4 -138 9 -176 49 -28 29 -30 37 -33 126 -5 112
6 145 57 180 31 21 47 24 127 24 78 0 96 -3 125 -23z"/>
</g>
</svg>
