<svg version="1.0" xmlns="http://www.w3.org/2000/svg" viewBox="0 0 512 512" preserveAspectRatio="xMidYMid meet">
<g transform="translate(0.000000,512.000000) scale(0.100000,-0.100000)"
fill="#ed4b71" stroke="none">
<path d="M452 5100 c-108 -29 -187 -75 -272 -160 -55 -55 -86 -95 -113 -151
-71 -144 -68 -68 -65 -1577 l3 -1357 29 -84 c52 -147 169 -282 301 -345 123
-58 136 -59 483 -64 l322 -3 0 200 0 201 -277 0 c-163 0 -294 4 -316 11 -49
13 -105 63 -128 114 -18 38 -19 90 -19 908 l0 867 2160 0 2160 0 0 -867 c0
-818 -1 -870 -19 -908 -23 -51 -79 -101 -128 -114 -22 -7 -151 -11 -310 -11
l-273 0 0 -201 0 -200 318 3 c309 4 319 4 394 30 183 61 320 197 385 383 l28
80 3 1357 c3 1509 6 1433 -65 1577 -27 56 -58 96 -113 151 -86 87 -164 132
-276 160 -76 20 -117 20 -2108 19 -1967 0 -2033 -1 -2104 -19z m4175 -412 c26
-17 50 -45 67 -79 25 -50 26 -61 26 -201 l0 -148 -2160 0 -2160 0 0 148 c0
134 2 152 24 198 24 52 65 89 114 104 15 5 932 8 2038 7 l2010 -2 41 -27z"/>
<path d="M680 3160 l0 -200 1320 0 1320 0 0 200 0 200 -1320 0 -1320 0 0 -200z"/>
<path d="M2360 1578 l0 -813 -270 270 -270 270 -140 -140 -140 -140 512 -512
513 -513 512 512 513 513 -137 137 c-76 76 -142 138 -148 138 -5 0 -130 -120
-277 -267 l-268 -268 0 813 0 812 -200 0 -200 0 0 -812z"/>
</g>
</svg>
