<svg xmlns="http://www.w3.org/2000/svg" width="6" height="11.97" viewBox="0 0 6 11.97">
  <path d="M5.770,-0.011 L4.331,-0.014 C2.715,-0.014 1.671,1.144 1.671,2.937 L1.671,4.297 L0.225,4.297 C0.100,4.297 -0.001,4.407 -0.001,4.541 L-0.001,6.512 C-0.001,6.647 0.100,6.757 0.225,6.757 L1.671,6.757 L1.671,11.731 C1.671,11.865 1.772,11.975 1.897,11.975 L3.784,11.975 C3.909,11.975 4.010,11.865 4.010,11.731 L4.010,6.757 L5.701,6.757 C5.826,6.757 5.927,6.647 5.927,6.512 L5.928,4.541 C5.928,4.477 5.904,4.414 5.862,4.368 C5.819,4.323 5.762,4.297 5.702,4.297 L4.010,4.297 L4.010,3.144 C4.010,2.590 4.133,2.308 4.800,2.308 L5.769,2.307 C5.894,2.307 5.995,2.198 5.995,2.063 L5.995,0.233 C5.995,0.098 5.894,-0.011 5.770,-0.011 Z" class="cls-1"/>
</svg>
