<svg xmlns="http://www.w3.org/2000/svg" width="13" height="13" viewBox="0 0 13 13">
  <path d="M12.956,9.188 C12.926,9.879 12.814,10.352 12.654,10.766 C12.316,11.641 11.625,12.332 10.751,12.670 C10.339,12.830 9.864,12.942 9.172,12.972 C8.479,13.003 8.258,13.010 6.491,13.010 C4.725,13.010 4.504,13.003 3.810,12.972 C3.119,12.942 2.646,12.830 2.232,12.670 C1.800,12.507 1.406,12.251 1.081,11.920 C0.751,11.595 0.494,11.203 0.329,10.766 C0.169,10.354 0.057,9.879 0.026,9.188 C-0.004,8.494 -0.012,8.272 -0.012,6.506 C-0.012,4.739 -0.004,4.519 0.029,3.823 C0.060,3.132 0.171,2.658 0.331,2.244 C0.494,1.812 0.751,1.418 1.081,1.093 C1.406,0.760 1.798,0.506 2.235,0.341 C2.646,0.180 3.122,0.068 3.813,0.038 C4.507,0.008 4.728,0.000 6.494,0.000 C8.260,0.000 8.481,0.008 9.178,0.041 C9.869,0.071 10.341,0.183 10.756,0.343 C11.188,0.506 11.581,0.763 11.907,1.093 C12.240,1.418 12.494,1.809 12.659,2.247 C12.819,2.658 12.931,3.134 12.961,3.825 C12.992,4.519 12.994,4.739 12.994,6.506 C12.994,8.272 12.987,8.494 12.956,9.188 ZM11.790,3.884 C11.762,3.251 11.655,2.905 11.566,2.676 C11.462,2.394 11.297,2.140 11.081,1.929 C10.872,1.712 10.616,1.548 10.334,1.444 C10.105,1.354 9.762,1.248 9.127,1.220 C8.443,1.189 8.237,1.182 6.499,1.182 C4.763,1.182 4.557,1.189 3.871,1.220 C3.239,1.248 2.893,1.354 2.664,1.444 C2.382,1.548 2.128,1.712 1.917,1.929 C1.699,2.137 1.534,2.394 1.429,2.676 C1.340,2.905 1.234,3.248 1.206,3.884 C1.175,4.568 1.168,4.776 1.168,6.511 C1.168,8.247 1.175,8.453 1.206,9.140 C1.234,9.773 1.340,10.118 1.429,10.346 C1.534,10.629 1.699,10.884 1.915,11.094 C2.123,11.310 2.380,11.476 2.662,11.580 C2.890,11.668 3.233,11.775 3.869,11.803 C4.552,11.834 4.761,11.841 6.496,11.841 C8.232,11.841 8.438,11.834 9.124,11.803 C9.757,11.775 10.103,11.668 10.331,11.580 C10.898,11.361 11.348,10.911 11.566,10.344 C11.655,10.116 11.762,9.773 11.790,9.137 C11.820,8.451 11.828,8.247 11.828,6.511 C11.828,4.776 11.820,4.570 11.790,3.884 ZM9.968,3.812 C9.537,3.812 9.188,3.463 9.188,3.032 C9.188,2.601 9.537,2.252 9.968,2.252 C10.399,2.252 10.748,2.601 10.748,3.032 C10.748,3.463 10.399,3.812 9.968,3.812 ZM6.494,9.849 C4.649,9.849 3.152,8.352 3.152,6.506 C3.152,4.661 4.649,3.164 6.494,3.164 C8.339,3.164 9.836,4.661 9.836,6.506 C9.836,8.352 8.339,9.849 6.494,9.849 ZM6.494,4.338 C5.297,4.338 4.326,5.309 4.326,6.506 C4.326,7.703 5.297,8.675 6.494,8.675 C7.691,8.675 8.662,7.703 8.662,6.506 C8.662,5.309 7.691,4.338 6.494,4.338 Z" class="cls-1"/>
</svg>
