<svg xmlns="http://www.w3.org/2000/svg" width="13.688" height="11.59" viewBox="0 0 13.688 11.59">
  <path d="M13.702,1.367 C13.192,1.601 12.648,1.755 12.082,1.830 C12.664,1.467 13.109,0.897 13.318,0.211 C12.775,0.549 12.175,0.787 11.536,0.920 C11.020,0.348 10.284,-0.007 9.482,-0.007 C7.925,-0.007 6.672,1.309 6.672,2.922 C6.672,3.155 6.691,3.378 6.737,3.590 C4.400,3.472 2.332,2.305 0.943,0.527 C0.700,0.966 0.558,1.467 0.558,2.007 C0.558,3.021 1.059,3.920 1.807,4.441 C1.355,4.432 0.912,4.295 0.536,4.080 C0.536,4.089 0.536,4.100 0.536,4.112 C0.536,5.535 1.511,6.717 2.789,6.989 C2.560,7.055 2.311,7.086 2.052,7.086 C1.872,7.086 1.690,7.075 1.519,7.036 C1.884,8.195 2.917,9.048 4.146,9.076 C3.190,9.855 1.975,10.324 0.661,10.324 C0.430,10.324 0.209,10.314 -0.012,10.284 C1.233,11.120 2.709,11.598 4.301,11.598 C9.474,11.598 12.303,7.135 12.303,3.266 C12.303,3.137 12.299,3.012 12.292,2.887 C12.850,2.475 13.319,1.960 13.702,1.367 Z" class="cls-1"/>
</svg>
