<svg xmlns="http://www.w3.org/2000/svg" width="14.56" height="10.78" viewBox="0 0 14.56 10.78">
  <path d="M13.939,1.046 C13.544,0.291 13.116,0.152 12.243,0.099 C11.372,0.035 9.180,0.008 7.281,0.008 C5.378,0.008 3.186,0.035 2.315,0.098 C1.444,0.152 1.015,0.289 0.616,1.046 C0.209,1.801 0.000,3.101 0.000,5.390 C0.000,5.392 0.000,5.393 0.000,5.393 C0.000,5.395 0.000,5.396 0.000,5.396 L0.000,5.398 C0.000,7.677 0.209,8.986 0.616,9.733 C1.015,10.490 1.443,10.627 2.314,10.690 C3.186,10.745 5.378,10.777 7.281,10.777 C9.180,10.777 11.372,10.745 12.244,10.691 C13.117,10.627 13.545,10.490 13.940,9.735 C14.350,8.988 14.558,7.678 14.558,5.399 C14.558,5.399 14.558,5.396 14.558,5.394 C14.558,5.394 14.558,5.392 14.558,5.391 C14.558,3.101 14.350,1.801 13.939,1.046 ZM5.459,8.330 L5.459,2.456 L10.009,5.393 L5.459,8.330 Z" class="cls-1"/>
</svg>
