<svg xmlns="http://www.w3.org/2000/svg" width="19" height="15" viewBox="0 0 19 15">
  <defs>
    <style>
      .cls-1 {
        fill: #c2cbdb;
        fill-rule: evenodd;
      }
    </style>
  </defs>
  <path id="mail" class="cls-1" d="M1573.3,431a1.644,1.644,0,0,0,1.12-.422l-5.39-5.408c-0.13.092-.25,0.183-0.37,0.269-0.4.3-.73,0.531-0.98,0.7a6.18,6.18,0,0,1-1,.512,3.074,3.074,0,0,1-1.17.261h-0.02a3.074,3.074,0,0,1-1.17-.261,6.18,6.18,0,0,1-1-.512c-0.25-.166-0.58-0.4-0.98-0.7-0.11-.083-0.24-0.174-0.37-0.271l-5.39,5.41a1.644,1.644,0,0,0,1.12.422h15.6Zm-16.23-9.236a5.689,5.689,0,0,1-1.07-.927v8.229l4.74-4.767C1559.8,423.633,1558.57,422.789,1557.07,421.764Zm16.87,0q-2.16,1.473-3.68,2.536l4.74,4.766v-8.229A5.856,5.856,0,0,1,1573.94,421.764ZM1573.3,416h-15.6a1.507,1.507,0,0,0-1.26.554,2.176,2.176,0,0,0-.44,1.385,2.481,2.481,0,0,0,.58,1.454,5.45,5.45,0,0,0,1.24,1.23c0.24,0.171.97,0.677,2.18,1.519l1.71,1.192c0.41,0.291.77,0.543,1.07,0.752,0.03,0.024.08,0.062,0.15,0.113s0.18,0.125.3,0.212q0.345,0.25.57,0.4c0.15,0.1.33,0.218,0.55,0.346a3.362,3.362,0,0,0,.61.288,1.709,1.709,0,0,0,.53.1h0.02a1.709,1.709,0,0,0,.53-0.1,3.362,3.362,0,0,0,.61-0.288c0.22-.128.4-0.243,0.55-0.346s0.34-.238.57-0.4c0.12-.087.22-0.157,0.3-0.212s0.12-.089.16-0.113l1.07-.749c0.88-.614,2.17-1.517,3.89-2.714a5.2,5.2,0,0,0,1.29-1.31,2.8,2.8,0,0,0,.52-1.608A1.709,1.709,0,0,0,1573.3,416Z" transform="translate(-1556 -416)"/>
</svg>
