<svg xmlns="http://www.w3.org/2000/svg" width="19" height="14.25" viewBox="0 0 19 14.25">
  <defs>
    <style>
      .cls-1 {
        fill: #c2cbdb;
        fill-rule: evenodd;
      }
    </style>
  </defs>
  <path id="hide" class="cls-1" d="M1572.62,527.555l-1.11-1.12-1.78,1.776a9.65,9.65,0,0,0-4.23-.984,10.812,10.812,0,0,0-9.5,6.333,12.075,12.075,0,0,0,3.86,4.52l-1.48,1.485,1.11,1.12,1.78-1.773,2.05-2.052h0Zm-11.08,6a3.951,3.951,0,0,1,6.14-3.3l-1.16,1.158a2.359,2.359,0,0,0-3.39,2.138,2.315,2.315,0,0,0,.23,1.018l-1.16,1.159A3.957,3.957,0,0,1,1561.54,533.56Zm10.84-3.521-2.98,2.976a3.294,3.294,0,0,1,.06.545,3.957,3.957,0,0,1-3.96,3.958,4.267,4.267,0,0,1-.55-0.054l-2.06,2.062a9.612,9.612,0,0,0,2.61.368,10.811,10.811,0,0,0,9.5-6.334A12.412,12.412,0,0,0,1572.38,530.039Z" transform="translate(-1556 -526.438)"/>
</svg>
