<svg 
 xmlns="http://www.w3.org/2000/svg"
 xmlns:xlink="http://www.w3.org/1999/xlink"
 width="18px" height="18px">
<path fill-rule="evenodd"  fill="rgb(168, 182, 196)"
 d="M16.420,10.793 C15.504,10.793 14.606,10.651 13.756,10.370 C13.239,10.192 12.626,10.324 12.298,10.666 L10.697,11.873 C8.875,10.873 7.707,9.705 6.720,7.897 L7.867,6.369 C8.264,5.973 8.406,5.390 8.235,4.845 C7.952,3.987 7.809,3.088 7.809,2.175 C7.809,1.351 7.139,0.681 6.316,0.681 L2.460,0.681 C1.637,0.681 0.967,1.351 0.967,2.175 C0.967,10.117 8.477,17.627 16.420,17.627 C17.243,17.627 17.913,16.957 17.913,16.135 L17.913,12.286 C17.913,11.463 17.243,10.793 16.420,10.793 ZM6.837,5.472 L5.365,7.421 C5.207,7.631 5.183,7.906 5.302,8.143 C6.529,10.555 8.022,12.047 10.448,13.289 C10.677,13.412 10.964,13.388 11.175,13.228 L13.194,11.696 C13.228,11.663 13.275,11.652 13.320,11.668 C14.315,11.997 15.358,12.163 16.420,12.163 C16.488,12.163 16.544,12.218 16.544,12.286 L16.544,16.135 C16.544,16.203 16.488,16.258 16.420,16.258 C9.181,16.258 2.337,9.414 2.337,2.175 C2.337,2.106 2.392,2.051 2.460,2.051 L6.316,2.051 C6.385,2.051 6.440,2.106 6.440,2.175 C6.440,3.237 6.606,4.278 6.931,5.264 C6.940,5.290 6.956,5.344 6.837,5.472 Z"/>
</svg>