<svg 
 xmlns="http://www.w3.org/2000/svg"
 xmlns:xlink="http://www.w3.org/1999/xlink"
 width="16px" height="16px">
<path fill-rule="evenodd"  fill="rgb(168, 182, 196)"
 d="M13.696,9.759 C12.876,8.942 11.901,8.337 10.837,7.971 C11.989,7.180 12.742,5.850 12.725,4.349 C12.698,1.961 10.713,0.031 8.318,0.062 C5.946,0.093 4.026,2.026 4.026,4.398 C4.026,5.879 4.774,7.189 5.914,7.971 C4.850,8.337 3.875,8.942 3.055,9.759 C1.786,11.025 1.026,12.663 0.878,14.426 C0.849,14.768 1.117,15.063 1.462,15.063 L1.466,15.063 C1.772,15.063 2.024,14.827 2.050,14.523 C2.325,11.285 5.057,8.734 8.375,8.734 C11.694,8.734 14.425,11.285 14.701,14.523 C14.727,14.827 14.979,15.063 15.285,15.063 L15.289,15.063 C15.634,15.063 15.902,14.768 15.873,14.426 C15.725,12.663 14.965,11.025 13.696,9.759 ZM8.375,7.562 C6.625,7.562 5.201,6.143 5.201,4.398 C5.201,2.653 6.625,1.234 8.375,1.234 C10.126,1.234 11.550,2.653 11.550,4.398 C11.550,6.143 10.126,7.562 8.375,7.562 Z"/>
</svg>